# xmcd CD database file
#
# Track frame offsets:
#	150
#	12355
#	33340
#	50537
#	62725
#	81380
#	94590
#	106500
#	130050
#	146755
#	163275
#
# Disc length: 2420 seconds
#
# Revision: 0
# Processed by: cddbd v1.4PL0 Copyright (c) Steve Scherf et al.
# Submitted via: CDex 1.50Beta3
#
DISCID=8e09720b
DTITLE=Montana Rose - Star of Bannack 
DYEAR=1900
DGENRE=Country
TTITLE0=Star of Bannack 
TTITLE1=Vigilante Song 
TTITLE2=Juan Guadalupe 
TTITLE3=Next Year Better 
TTITLE4=Arms of Sin 
TTITLE5=Deep Down 
TTITLE6=Jackson Saturday Night 
TTITLE7=Reno and Me 
TTITLE8=Somewhere In Texas 
TTITLE9=Six String Slinger 
TTITLE10=Baby It's You 
EXTD=
EXTT0=
EXTT1=
EXTT2=
EXTT3=
EXTT4=
EXTT5=
EXTT6=
EXTT7=
EXTT8=
EXTT9=
EXTT10=
PLAYORDER=
